# This file uses centimeters as units for non-parametric coordinates.

mtllib Inside Corner_HP.mtl
g default
v 0.986830 0.000000 -2.011240
v 0.499407 0.000000 -2.521240
v 0.009827 0.000000 -3.033720
v 0.941353 0.000000 -0.011757
v 0.441482 0.000000 -0.023127
v -0.058389 0.000000 -0.034496
v 2.986313 0.000000 -1.965763
v 2.997682 0.000000 -2.465633
v 3.009051 0.000000 -2.965504
v 0.962436 1.000000 -2.036769
v 0.979685 0.992687 -2.018717
v 0.986830 0.975032 -2.011240
v 0.941352 0.975032 -0.011757
v 0.934042 0.992687 -0.011923
v 0.916391 1.000000 -0.012325
v 0.483427 0.988682 -2.536004
v 0.498807 0.997127 -2.519865
v 0.516055 1.000000 -2.501809
v 0.441482 0.982345 -0.023127
v 0.460119 1.000000 -0.022703
v 0.442469 0.997088 -0.023104
v 0.426688 0.988662 -0.023463
v 0.009827 0.597192 -3.033720
v 0.013916 0.614809 -3.029422
v 0.025055 0.628842 -3.017716
v -0.058389 0.597199 -0.034496
v -0.042765 0.628862 -0.034140
v -0.054270 0.614854 -0.034402
v 2.986479 0.992687 -1.973074
v 2.986313 0.975032 -1.965763
v 2.986881 1.000000 -1.990724
v 2.997660 0.997088 -2.464646
v 2.997258 1.000000 -2.446996
v 2.997682 0.982345 -2.465633
v 2.998019 0.988662 -2.480427
v 3.008958 0.614854 -2.961385
v 3.008696 0.628862 -2.949880
v 3.009051 0.597199 -2.965504
vt 0.575483 0.015599
vt 0.496716 0.015599
vt 0.575483 0.488200
vt 0.654250 0.488200
vt 0.654250 0.015599
vt 0.654250 0.976567
vt 0.575483 0.976567
vt 0.575483 0.503966
vt 0.654250 0.503966
vt 0.175885 0.013013
vt 0.175885 0.485615
vt 0.351128 0.010869
vt 0.270337 0.449625
vt 0.270340 0.010869
vt 0.264423 0.010869
vt 0.181371 0.538909
vt 0.181375 0.010869
vt 0.401788 0.488200
vt 0.351129 0.369145
vt 0.264428 0.455542
vt 0.496716 0.488200
vt 0.401789 0.015599
vt 0.022284 0.485615
vt 0.022284 0.013013
vt 0.268007 0.970487
vt 0.359397 1.061524
vt 0.496716 0.503966
vt 0.496716 0.976567
vt 0.022284 0.979632
vt 0.022284 0.507031
vt 0.175885 0.979632
vt 0.800676 0.073047
vt 0.800676 0.201880
vt 0.797359 0.205179
vt 0.736721 0.205179
vt 0.734244 0.202847
vt 0.667260 0.154526
vt 0.667260 0.073047
vt 0.734244 0.073047
vt 0.732262 0.203760
vt 0.669354 0.158711
vt 0.702462 0.899173
vt 0.702462 0.765260
vt 0.768526 0.902602
vt 0.705888 0.902602
vt 0.773114 0.901060
vt 0.771085 0.900177
vt 0.837494 0.852127
vt 0.771085 0.765260
vt 0.839636 0.765260
vt 0.839636 0.847778
vt 0.185644 0.887760
vt 0.185644 0.521018
vt 0.175885 0.507031
vt 0.274064 0.976547
vt 0.274357 0.521019
vt 0.268300 0.521018
vt 0.401789 0.976567
vt 0.401788 0.503966
vt 0.359401 0.521018
vt 0.179818 0.979632
vt 0.181122 0.883238
vt 0.355548 0.364742
vt 0.179818 0.013013
vt 0.355548 0.010869
vt 0.800676 0.205179
vt 0.179818 0.485615
vt 0.271380 0.973874
vt 0.267040 0.452920
vt 0.734244 0.205179
vt 0.267040 0.010869
vt 0.362232 1.064347
vt 0.398658 0.976567
vt 0.398658 0.015599
vt 0.178611 0.541678
vt 0.398658 0.488200
vt 0.667260 0.157212
vt 0.178611 0.010869
vt 0.181122 0.521018
vt 0.179818 0.507031
vt 0.702462 0.902602
vt 0.271677 0.521018
vt 0.771085 0.902602
vt 0.398658 0.503966
vt 0.362232 0.521018
vt 0.839636 0.850499
vn 0.000000 -1.000000 0.000000
vn 0.000000 -1.000000 0.000000
vn 0.000000 -1.000000 0.000000
vn 0.000000 -1.000000 0.000000
vn 0.000000 -1.000000 0.000000
vn 0.000000 -1.000000 0.000000
vn 0.000000 -1.000000 0.000000
vn 0.000000 -1.000000 0.000000
vn 0.000000 -1.000000 0.000000
vn 0.000000 -1.000000 0.000000
vn 0.000000 -1.000000 0.000000
vn 0.000000 -1.000000 0.000000
vn 0.999700 0.009059 0.022738
vn 0.923641 0.382683 0.021008
vn 0.923641 0.382683 0.021008
vn 0.999714 0.007380 0.022738
vn 0.382584 0.923880 0.008702
vn 0.002425 0.999994 0.002537
vn 0.013852 0.999904 0.000315
vn 0.382584 0.923880 0.008702
vn -0.009078 0.999914 -0.009497
vn -0.201889 0.956396 -0.211062
vn -0.321491 0.946885 -0.007247
vn -0.006709 0.999978 -0.000151
vn -0.606919 0.794645 -0.013754
vn -0.604790 0.796267 -0.013705
vn -0.621550 0.783248 -0.014092
vn -0.923653 0.382653 -0.021020
vn -0.896809 0.441947 -0.020409
vn -0.614102 0.789104 -0.013920
vn -0.999725 0.005794 -0.022739
vn -0.999719 0.006750 -0.022738
vn -0.999741 0.000000 -0.022739
vn -0.999741 0.000000 -0.022739
vn 0.999741 0.000000 0.022739
vn 0.999741 0.000000 0.022739
vn -0.000316 0.999904 0.013873
vn 0.000149 0.999977 -0.006731
vn 0.013602 0.795315 -0.606044
vn 0.013552 0.796924 -0.603928
vn 0.013771 0.789780 -0.613235
vn 0.013946 0.783984 -0.620624
vn 0.022739 0.000000 -0.999741
vn 0.022739 0.000000 -0.999741
vn 0.022738 0.005810 -0.999725
vn 0.022738 0.006764 -0.999719
vn -0.022739 0.000000 0.999741
vn -0.022739 0.000000 0.999741
vn -0.022738 0.007380 0.999714
vn -0.022738 0.009059 0.999700
vn -0.022739 -0.000000 0.999741
vn -0.022739 -0.000000 0.999741
vn -0.022739 -0.000000 0.999741
vn -0.022739 -0.000000 0.999741
vn -0.022739 -0.000000 0.999741
vn -0.022739 -0.000000 0.999741
vn -0.022739 -0.000000 0.999741
vn -0.022739 0.000000 0.999741
vn -0.022738 0.000000 0.999741
vn -0.022738 0.000000 0.999742
vn -0.022738 0.000000 0.999742
vn -0.022738 0.000000 0.999742
vn -0.022738 0.000000 0.999742
vn 0.999741 0.000000 0.022738
vn 0.999741 0.000000 0.022738
vn 0.999741 0.000000 0.022738
vn 0.999742 -0.000000 0.022739
vn 0.999741 -0.000000 0.022739
vn 0.999742 0.000000 0.022738
vn 0.999741 0.000000 0.022738
vn 0.999741 -0.000000 0.022739
vn 0.999741 -0.000001 0.022743
vn 0.999741 -0.000000 0.022739
vn 0.999741 -0.000000 0.022739
vn 0.999741 -0.000000 0.022739
vn 0.999741 -0.000000 0.022739
vn -0.008702 0.923880 0.382583
vn -0.008702 0.923880 0.382583
vn -0.021008 0.382683 0.923641
vn -0.021008 0.382683 0.923641
vn 0.007108 0.946967 -0.321252
vn 0.020981 0.383642 -0.923244
vn 0.020370 0.442689 -0.896444
s 1
g Inside_Corner_HP
usemtl initialShadingGroup
f 4/4/1 5/3/2 2/1/3 1/5/4
f 5/3/2 6/21/5 3/2/6 2/1/3
s 2
f 1/6/7 2/7/8 8/8/9 7/9/10
f 2/7/8 3/28/11 9/27/12 8/8/9
s 3
f 12/10/13 11/64/14 14/67/15 13/11/16
s 4
f 11/63/17 10/19/18 15/12/19 14/65/20
f 18/13/21 17/69/22 21/71/23 20/14/24
f 17/69/22 16/20/25 22/15/26 21/71/23
f 25/16/27 24/75/28 28/78/29 27/17/30
f 24/74/28 23/22/31 26/18/32 28/76/29
f 10/19/18 18/13/21 20/14/24 15/12/19
f 16/20/25 25/16/27 27/17/30 22/15/26
f 3/2/33 6/21/34 26/18/32 23/22/31
s 3
f 4/23/35 1/24/36 12/10/13 13/11/16
s 4
f 10/52/18 31/53/37 33/57/38 18/25/21
f 16/55/39 35/56/40 37/60/41 25/26/42
f 9/27/43 3/28/44 23/58/45 38/59/46
s 9
f 1/29/47 7/30/48 30/54/49 12/31/50
s 10
f 20/35/51 19/36/52 5/39/53 4/32/54 13/33/55 14/66/56 15/34/57
f 19/36/52 20/35/51 21/70/58
f 19/36/52 21/70/58 22/40/59
f 26/37/60 6/38/61 5/39/53 19/36/52 22/40/59 27/41/62 28/77/63
s 11
f 29/81/64 30/42/65 7/43/66 8/49/67 34/47/68 33/44/69 31/45/70
f 34/47/68 35/46/71 32/83/72
f 34/47/68 32/83/72 33/44/69
f 36/86/73 37/48/74 35/46/71 34/47/68 8/49/67 9/50/75 38/51/76
s 4
f 10/52/18 11/62/77 29/79/78 31/53/37
s 9
f 11/61/79 12/31/50 30/54/49 29/80/80
s 4
f 16/55/39 17/68/22 32/82/81 35/56/40
f 17/68/22 18/25/21 33/57/38 32/82/81
f 23/58/45 24/73/82 36/84/83 38/59/46
f 24/72/82 25/26/42 37/60/41 36/85/83
