# This file uses centimeters as units for non-parametric coordinates.

mtllib Outside Corner_HP.mtl
g default
v -1.000002 0.000000 -3.999892
v -0.518412 0.000000 -3.501609
v 0.000000 0.000000 -3.000805
v 3.000000 0.000000 -4.001609
v 3.000000 0.000000 -3.501609
v 3.000000 0.000000 -3.001609
v -1.000000 0.000000 0.000000
v -0.500000 0.000000 0.000000
v 0.000000 0.000000 0.000000
v -0.500000 0.000000 -3.488302
v -1.000002 0.974933 -3.999892
v -0.992762 0.992658 -3.992573
v -0.975282 1.000000 -3.974905
v 3.000000 0.975003 -4.001609
v 3.000000 0.992678 -3.994288
v 3.000000 1.000000 -3.976612
v -0.503004 0.988779 -3.486725
v -0.519073 0.997154 -3.502562
v -0.536427 1.000000 -3.520249
v 3.000000 0.982324 -3.501609
v 3.000000 1.000000 -3.520252
v 3.000000 0.997117 -3.502576
v 3.000000 0.988766 -3.486732
v 0.000000 0.602831 -3.000805
v -0.004278 0.620417 -3.004976
v -0.015933 0.634487 -3.016339
v 3.000000 0.602710 -3.001609
v 3.000000 0.634356 -3.017368
v 3.000000 0.620386 -3.005767
v -0.992678 0.992678 0.000000
v -1.000000 0.975003 0.000000
v -0.975002 1.000000 0.000000
v -0.500966 0.997117 0.000000
v -0.518642 1.000000 0.000000
v -0.500000 0.982324 0.000000
v -0.485123 0.988766 0.000000
v -0.518642 1.000000 -3.507376
v -0.500956 0.997149 -3.489461
v -0.485123 0.988766 -3.473797
v -0.004158 0.620386 0.000000
v -0.015759 0.634356 0.000000
v 0.000000 0.602710 0.000000
vt 0.534109 0.510743
vt 0.455342 0.510743
vt 0.534109 0.983344
vt 0.612876 0.983344
vt 0.612876 0.510743
vt 0.612876 0.486667
vt 0.534109 0.486667
vt 0.534109 0.014066
vt 0.612876 0.014066
vt 0.200939 0.575147
vt 0.200978 0.015126
vt 0.175880 0.013013
vt 0.737841 0.217082
vt 0.743629 0.820360
vt 0.824687 0.304020
vt 0.824671 0.820360
vt 0.360395 0.983344
vt 0.265280 0.015126
vt 0.270003 0.504584
vt 0.659327 0.143889
vt 0.737852 0.820360
vt 0.743626 0.222661
vt 0.455342 0.983344
vt 0.360376 0.510743
vt 0.022284 0.982291
vt 0.022284 0.509690
vt 0.265280 0.509315
vt 0.270003 0.015126
vt 0.336112 0.440128
vt 0.455342 0.014066
vt 0.455342 0.486667
vt 0.022284 0.485615
vt 0.022284 0.013013
vt 0.175869 0.485615
vt 0.800676 0.828066
vt 0.800676 0.956895
vt 0.797355 0.960198
vt 0.736721 0.960198
vt 0.734244 0.957863
vt 0.667260 0.909561
vt 0.667260 0.828066
vt 0.734244 0.828066
vt 0.732251 0.958771
vt 0.669371 0.913743
vt 0.699699 0.157073
vt 0.699699 0.023164
vt 0.765763 0.160507
vt 0.703129 0.160507
vt 0.770362 0.158956
vt 0.768322 0.158079
vt 0.834713 0.110046
vt 0.768322 0.023164
vt 0.836873 0.023164
vt 0.836873 0.105700
vt 0.175869 0.509690
vt 0.175880 0.982291
vt 0.659314 0.820360
vt 0.360376 0.486667
vt 0.360395 0.014066
vt 0.336136 0.015126
vt 0.655012 0.139764
vt 0.179818 0.509690
vt 0.179818 0.485615
vt 0.197456 0.578710
vt 0.179818 0.982291
vt 0.655012 0.820360
vt 0.800676 0.960198
vt 0.741060 0.220086
vt 0.734244 0.960198
vt 0.741060 0.820360
vt 0.338356 0.437939
vt 0.357284 0.486667
vt 0.357284 0.510743
vt 0.827391 0.306681
vt 0.357284 0.983344
vt 0.667260 0.912231
vt 0.827391 0.820360
vt 0.179818 0.013013
vt 0.699699 0.160507
vt 0.197456 0.015126
vt 0.768322 0.160507
vt 0.267906 0.015126
vt 0.267906 0.506628
vt 0.357284 0.014066
vt 0.338356 0.015126
vt 0.836873 0.108404
vn 0.000000 -1.000000 0.000000
vn 0.000000 -1.000000 -0.000000
vn 0.000000 -1.000000 0.000000
vn 0.000000 -1.000000 0.000000
vn 0.000000 -1.000000 -0.000000
vn 0.000000 -1.000000 -0.000000
vn 0.000000 -1.000000 0.000000
vn 0.000000 -1.000000 0.000000
vn 0.000000 -1.000000 0.000000
vn 0.000000 -1.000000 0.000000
vn 0.000000 -1.000000 0.000000
vn 0.000000 -1.000000 0.000000
vn -0.045647 0.998958 0.000002
vn -0.384964 0.922932 0.000015
vn -0.384964 0.922932 0.000015
vn -0.016425 0.999865 0.000001
vn -0.924814 0.380419 0.000006
vn -0.999984 0.005648 0.000001
vn -0.999973 0.007328 0.000001
vn -0.924814 0.380419 0.000006
vn 0.000000 0.999998 0.001999
vn 0.000006 0.969983 0.243173
vn 0.000007 0.948355 0.317212
vn 0.000000 0.999984 0.005699
vn 0.000105 0.805978 0.591946
vn 0.000110 0.801482 0.598019
vn 0.000115 0.796672 0.604412
vn 0.000262 0.490649 0.871357
vn 0.000264 0.443498 0.896275
vn 0.000117 0.794489 0.607279
vn 0.000268 0.007680 0.999971
vn 0.000268 0.006718 0.999977
vn 0.005667 0.999984 0.000000
vn 0.317394 0.948294 0.000005
vn 0.243831 0.969818 0.000005
vn 0.001925 0.999998 0.000000
vn 0.598543 0.801091 0.000000
vn 0.592833 0.805326 0.000000
vn -0.000019 0.999038 -0.043855
vn -0.000007 0.999866 -0.016403
vn 0.000268 0.000000 1.000000
vn 0.000268 0.000000 1.000000
vn -0.000429 0.000000 -1.000000
vn -0.000429 0.000000 -1.000000
vn -0.000430 0.005699 -0.999984
vn -0.000430 0.007368 -0.999973
vn 0.607705 0.794163 -0.000001
vn 0.604955 0.796260 -0.000000
vn 1.000000 0.000000 0.000000
vn 1.000000 0.000000 0.000000
vn 0.999970 0.007753 -0.000000
vn 0.999977 0.006803 -0.000000
vn -1.000000 0.000000 0.000000
vn -1.000000 0.000000 0.000000
vn 1.000000 0.000000 0.000000
vn 1.000000 0.000000 0.000000
vn 1.000000 0.000000 0.000000
vn 1.000000 0.000000 0.000000
vn 1.000000 0.000000 0.000000
vn 1.000000 0.000000 0.000000
vn 1.000000 0.000000 0.000000
vn 1.000000 0.000000 0.000000
vn 1.000000 0.000000 0.000000
vn 1.000000 0.000000 0.000000
vn 1.000000 0.000000 0.000000
vn 1.000000 0.000000 0.000000
vn 1.000000 0.000000 0.000000
vn 0.000000 0.000000 1.000000
vn 0.000000 0.000000 1.000000
vn 0.000000 0.000000 1.000000
vn 0.000000 0.000000 1.000000
vn 0.000000 0.000000 1.000000
vn 0.000000 0.000000 1.000000
vn 0.000000 0.000000 1.000000
vn 0.000000 0.000000 1.000000
vn 0.000000 0.000000 1.000000
vn 0.000000 0.000000 1.000000
vn 0.000000 0.000000 1.000000
vn 0.000000 0.000000 1.000000
vn 0.000000 0.000000 1.000000
vn -0.000401 0.382230 -0.924067
vn -0.000401 0.382230 -0.924067
vn -0.000167 0.923693 -0.383133
vn -0.000167 0.923693 -0.383133
vn 0.869365 0.494170 -0.000018
vn 0.894069 0.447929 -0.000018
s 1
g Outside_Corner_HP
usemtl initialShadingGroup
f 4/4/1 5/3/2 2/1/3 1/5/4
f 5/3/2 6/23/5 3/2/6 2/1/3
s 2
f 1/6/7 10/7/8 8/8/9 7/9/10
f 10/7/8 3/31/11 9/30/12 8/8/9
s 3
f 13/10/13 12/64/14 30/80/15 32/11/16
s 4
f 12/63/17 11/34/18 31/12/19 30/78/20
s 5
f 19/13/21 18/68/22 22/70/23 21/21/24
f 18/68/22 17/22/25 23/14/26 22/70/23
f 26/15/27 25/74/28 29/77/29 28/16/30
f 25/73/28 24/24/31 27/17/32 29/75/29
s 3
f 34/18/33 33/82/34 38/83/35 37/27/36
f 33/82/34 36/28/37 39/19/38 38/83/35
s 5
f 13/20/39 19/13/21 21/21/24 16/57/40
f 23/14/26 17/22/25 26/15/27 28/16/30
f 3/2/41 6/23/42 27/17/32 24/24/31
s 8
f 4/25/43 1/26/44 11/55/45 14/56/46
s 3
f 13/10/13 32/11/16 34/18/33 37/27/36
f 39/19/38 36/28/37 41/60/47 26/29/48
f 9/30/49 3/31/50 24/58/51 42/59/52
s 4
f 1/32/53 7/33/54 31/12/19 11/34/18
s 10
f 21/38/55 20/39/56 5/42/57 4/35/58 14/36/59 15/67/60 16/37/61
f 20/39/56 21/38/55 22/69/62
f 20/39/56 22/69/62 23/43/63
f 27/40/64 6/41/65 5/42/57 20/39/56 23/43/63 28/44/66 29/76/67
s 11
f 30/79/68 31/45/69 7/46/70 8/52/71 35/50/72 34/47/73 32/48/74
f 35/50/72 36/49/75 33/81/76
f 35/50/72 33/81/76 34/47/73
f 40/86/77 41/51/78 36/49/75 35/50/72 8/52/71 9/53/79 42/54/80
s 8
f 11/55/45 12/62/81 15/65/82 14/56/46
s 5
f 12/61/83 13/20/39 16/57/40 15/66/84
s 3
f 24/58/51 25/72/85 40/84/86 42/59/52
f 25/71/85 26/29/48 41/60/47 40/85/86
