# This file uses centimeters as units for non-parametric coordinates.

mtllib Outside Bend.mtl
g default
v -0.997819 0.000000 0.000000
v -0.497819 0.000000 0.000000
v 0.002181 0.000000 0.000000
v -0.997806 0.994431 -0.010829
v -0.497807 0.994431 -0.009574
v 0.002191 0.616888 -0.008318
v 0.208197 0.997215 -2.993900
v 0.532903 0.997215 -2.612021
v 0.858613 0.616888 -2.231129
v 0.202603 0.000000 -2.988342
v 0.527240 0.000000 -2.606404
v 0.856094 0.000000 -2.228606
v 3.000000 1.000000 -4.000007
v 3.000000 1.000000 -3.503626
v 3.000000 0.616888 -3.000000
v 3.000000 0.000000 -4.003626
v 3.000000 0.000000 -3.503626
v 3.000000 0.000000 -3.000000
v -0.666349 0.995823 -1.658253
v -0.669464 0.000000 -1.650752
v -0.212848 0.000000 -1.454185
v 0.236777 0.000000 -1.250755
v 0.238897 0.616888 -1.256248
v -0.209733 0.995823 -1.461171
v 1.452330 0.998608 -3.775037
v 1.450082 0.000000 -3.774251
v 1.622256 0.000000 -3.293497
v 1.796146 0.000000 -2.814426
v 1.798067 0.616888 -2.815222
v 1.625597 0.998608 -3.295521
v 2.187107 0.000000 -3.948867
v 2.188347 0.999304 -3.949044
v 2.279655 0.999304 -3.452648
v 2.371637 0.616888 -2.956918
v 2.370617 0.000000 -2.956715
v 2.278481 0.000000 -3.452415
v 2.584542 0.000000 -3.990070
v 2.585215 0.999652 -3.990137
v 2.632534 0.999652 -3.490953
v 2.680063 0.616888 -2.991979
v 2.679545 0.000000 -2.991928
v 2.631938 0.000000 -3.490894
v 1.811329 0.998956 -3.878905
v 1.809568 0.000000 -3.878495
v 1.941977 0.000000 -3.387526
v 2.075612 0.000000 -2.897761
v 2.076991 0.616888 -2.898102
v 1.943695 0.998956 -3.388046
v 0.791260 0.997912 -3.459916
v 0.788284 0.000000 -3.458056
v 1.033782 0.000000 -3.010630
v 1.288893 0.000000 -2.572636
v 1.291151 0.616888 -2.574038
v 1.040293 0.997912 -3.016082
v -0.287439 0.000000 -2.380230
v -0.282948 0.996519 -2.386568
v 0.113337 0.996519 -2.089466
v 0.505715 0.616888 -1.788530
v 0.503228 0.000000 -1.784607
v 0.108828 0.000000 -2.083334
v -0.913075 0.995127 -0.850837
v -0.914934 0.000000 -0.841546
v -0.424541 0.000000 -0.744001
v 0.065076 0.000000 -0.645695
v 0.066438 0.616888 -0.652768
v -0.422898 0.995127 -0.752215
v -0.812076 0.000000 -1.252179
v -0.809513 0.995475 -1.260596
v -0.331340 0.995475 -1.114478
v 0.140300 0.616888 -0.961947
v 0.138507 0.000000 -0.955654
v -0.333606 0.000000 -1.107037
v -0.976041 0.994779 -0.432911
v -0.977048 0.000000 -0.422809
v -0.479456 0.000000 -0.373800
v 0.018137 0.000000 -0.324792
v 0.018910 0.616888 -0.332552
v -0.478565 0.994779 -0.382731
v -0.489039 0.996171 -2.035984
v -0.492883 0.000000 -2.029098
v -0.064771 0.000000 -1.780787
v 0.358566 0.000000 -1.527789
v 0.361068 0.616888 -1.532636
v -0.060930 0.996171 -1.787309
v -0.055066 0.000000 -2.700809
v -0.049886 0.996867 -2.706803
v 0.311676 0.996867 -2.365016
v 0.671849 0.616888 -2.021867
v 0.669307 0.000000 -2.018673
v 0.306588 0.000000 -2.359218
v 0.490285 0.997563 -3.246534
v 0.484245 0.000000 -3.241199
v 0.769912 0.000000 -2.823742
v 1.062844 0.000000 -2.413419
v 1.065267 0.616888 -2.415342
v 0.776044 0.997563 -2.829237
v 1.108825 0.000000 -3.633914
v 1.111471 0.998260 -3.635174
v 1.324929 0.998260 -3.172541
v 1.535609 0.616888 -2.707176
v 1.533583 0.000000 -2.706212
v 1.318153 0.000000 -3.167068
vt 0.022932 0.509901
vt 0.534757 0.511305
vt 0.259233 0.510549
vt 0.180466 0.510333
vt 0.455990 0.511089
vt 0.357932 0.510820
vt 0.356637 0.983421
vt 0.533461 0.983906
vt 0.612228 0.984122
vt 0.454695 0.983690
vt 0.839517 0.768749
vt 0.839755 0.854179
vt 0.702271 0.769131
vt 0.702652 0.906378
vt 0.771276 0.906187
vt 0.770894 0.768940
vt 0.613524 0.511521
vt 0.179170 0.982934
vt 0.021637 0.982502
vt 0.257937 0.983150
vt 0.180466 0.013229
vt 0.259233 0.013445
vt 0.257937 0.486047
vt 0.179170 0.485830
vt 0.357932 0.013716
vt 0.356637 0.486317
vt 0.802139 0.204448
vt 0.735707 0.205911
vt 0.732781 0.073047
vt 0.799213 0.071585
vt 0.668171 0.157212
vt 0.666350 0.074510
vt 0.612228 0.487018
vt 0.533461 0.486802
vt 0.534757 0.014201
vt 0.613524 0.014417
vt 0.454695 0.486586
vt 0.455990 0.013985
vt 0.021637 0.485399
vt 0.022932 0.012798
vt 0.179818 0.746634
vt 0.022284 0.746202
vt 0.612876 0.747821
vt 0.534109 0.747605
vt 0.455342 0.747389
vt 0.357284 0.747120
vt 0.258585 0.746850
vt 0.179818 0.249530
vt 0.022284 0.249098
vt 0.612876 0.250717
vt 0.534109 0.250501
vt 0.455342 0.250285
vt 0.357284 0.250017
vt 0.258585 0.249746
vt 0.021960 0.367248
vt 0.612552 0.368867
vt 0.179494 0.367680
vt 0.258261 0.367896
vt 0.356961 0.368167
vt 0.455018 0.368436
vt 0.533785 0.368652
vt 0.021798 0.426323
vt 0.612390 0.427943
vt 0.179332 0.426755
vt 0.258099 0.426971
vt 0.356799 0.427242
vt 0.454857 0.427511
vt 0.533623 0.427727
vt 0.179656 0.308605
vt 0.022122 0.308173
vt 0.612714 0.309792
vt 0.533947 0.309576
vt 0.455180 0.309361
vt 0.357122 0.309092
vt 0.258423 0.308821
vt 0.180142 0.131380
vt 0.022608 0.130948
vt 0.613200 0.132567
vt 0.534433 0.132351
vt 0.455666 0.132135
vt 0.357608 0.131866
vt 0.258909 0.131596
vt 0.021960 0.864352
vt 0.612552 0.865971
vt 0.179494 0.864784
vt 0.258261 0.865000
vt 0.356961 0.865271
vt 0.455018 0.865539
vt 0.533785 0.865755
vt 0.180142 0.628484
vt 0.022608 0.628052
vt 0.613200 0.629671
vt 0.534433 0.629455
vt 0.455666 0.629239
vt 0.357608 0.628970
vt 0.258909 0.628700
vt 0.022446 0.687127
vt 0.613038 0.688746
vt 0.179980 0.687559
vt 0.258747 0.687775
vt 0.357446 0.688045
vt 0.455504 0.688314
vt 0.534271 0.688530
vt 0.180304 0.569408
vt 0.022770 0.568977
vt 0.613362 0.570596
vt 0.534595 0.570380
vt 0.455828 0.570164
vt 0.357770 0.569895
vt 0.259071 0.569624
vt 0.179656 0.805709
vt 0.022122 0.805277
vt 0.612714 0.806896
vt 0.533947 0.806680
vt 0.455180 0.806464
vt 0.357122 0.806195
vt 0.258423 0.805925
vt 0.021798 0.923427
vt 0.612390 0.925046
vt 0.179332 0.923859
vt 0.258099 0.924075
vt 0.356799 0.924346
vt 0.454857 0.924615
vt 0.533623 0.924831
vt 0.180304 0.072305
vt 0.022770 0.071873
vt 0.613362 0.073492
vt 0.534595 0.073276
vt 0.455828 0.073060
vt 0.357770 0.072791
vt 0.259071 0.072521
vt 0.022446 0.190023
vt 0.613038 0.191642
vt 0.179980 0.190455
vt 0.258747 0.190671
vt 0.357446 0.190941
vt 0.455504 0.191210
vt 0.534271 0.191426
vn -0.001255 0.010258 0.999947
vn 0.000621 0.010636 0.999943
vn 0.000098 0.010531 0.999945
vn -0.001255 0.010258 0.999947
vn 0.002937 0.011103 0.999934
vn 0.002937 0.011103 0.999934
vn -0.000045 1.000000 0.000873
vn 0.323930 0.945922 0.017370
vn 0.322383 0.946033 0.033024
vn -0.000088 1.000000 0.000869
vn 0.602412 0.797565 0.031462
vn 0.600042 0.797670 0.060595
vn 0.000000 -1.000000 0.000000
vn 0.000000 -1.000000 0.000000
vn 0.000000 -1.000000 0.000000
vn 0.000000 -1.000000 0.000000
vn 0.000000 -1.000000 0.000000
vn 0.000000 -1.000000 0.000000
vn 0.998735 0.000021 0.050281
vn 0.995217 0.000030 0.097689
vn 0.995141 0.000030 0.098458
vn 0.998735 0.000021 0.050281
vn -0.995034 -0.000017 -0.099538
vn -0.995100 -0.000017 -0.098879
vn -0.998735 -0.000017 -0.050281
vn -0.998735 -0.000017 -0.050281
vn -0.000787 1.000000 0.000601
vn 0.222214 0.942372 0.250113
vn 0.197566 0.947659 0.250820
vn -0.000823 1.000000 0.000565
vn 0.402259 0.796500 0.451415
vn 0.375375 0.798012 0.471455
vn 1.000000 0.000000 0.000000
vn 1.000000 0.000000 0.000000
vn 1.000000 0.000000 0.000000
vn 1.000000 0.000000 0.000000
vn 1.000000 0.000000 0.000000
vn 1.000000 0.000000 0.000000
vn 0.000000 -1.000000 0.000000
vn 0.000000 -1.000000 0.000000
vn 0.000000 -1.000000 0.000000
vn 0.000000 -1.000000 0.000000
vn 0.000000 -1.000000 0.000000
vn 0.000000 -1.000000 0.000000
vn 0.665931 0.000021 0.746013
vn 0.621894 0.000021 0.783102
vn 0.621605 0.000021 0.783331
vn 0.665931 0.000021 0.746013
vn -0.624735 -0.000246 -0.780837
vn -0.625213 -0.000245 -0.780454
vn -0.667602 -0.000172 -0.744518
vn -0.667602 -0.000172 -0.744518
vn -0.744205 0.000151 -0.667952
vn -0.778262 0.000222 -0.627940
vn -0.777915 0.000221 -0.628369
vn -0.744205 0.000151 -0.667952
vn 0.000000 -1.000000 0.000000
vn 0.000000 -1.000000 0.000000
vn 0.000000 -1.000000 0.000000
vn 0.000000 -1.000000 0.000000
vn 0.000000 -1.000000 0.000000
vn 0.000000 -1.000000 0.000000
vn 0.782235 0.000020 0.622984
vn 0.782523 0.000020 0.622622
vn 0.746583 0.000021 0.665293
vn 0.746583 0.000021 0.665293
vn 0.250732 0.946615 0.202616
vn 0.475478 0.793745 0.379328
vn 0.452597 0.794276 0.405316
vn 0.228722 0.951545 0.205544
vn -0.000661 1.000000 0.000696
vn -0.000706 1.000000 0.000670
vn -0.028206 0.001786 -0.999601
vn -0.064950 0.000900 -0.997888
vn -0.064898 0.000901 -0.997892
vn -0.028206 0.001786 -0.999601
vn 0.000000 -1.000000 0.000000
vn 0.000000 -1.000000 0.000000
vn 0.000000 -1.000000 0.000000
vn 0.000000 -1.000000 0.000000
vn 0.000000 -1.000000 0.000000
vn 0.000000 -1.000000 0.000000
vn 0.068484 0.000047 0.997652
vn 0.068531 0.000047 0.997649
vn 0.025122 0.000031 0.999684
vn 0.025122 0.000031 0.999684
vn 0.022417 0.944026 0.329108
vn 0.041439 0.795379 0.604695
vn 0.017853 0.794951 0.606410
vn 0.009287 0.943630 0.330871
vn -0.000902 1.000000 0.000085
vn -0.000889 1.000000 0.000042
vn -0.230216 -0.000016 -0.973140
vn -0.230353 -0.000016 -0.973107
vn -0.329278 -0.000017 -0.944233
vn -0.329093 -0.000017 -0.944298
vn -0.000936 1.000000 0.000339
vn 0.105599 0.946953 0.303528
vn 0.076266 0.945847 0.315527
vn -0.000939 1.000000 0.000255
vn 0.197596 0.800598 0.565684
vn 0.141522 0.798852 0.584642
vn 0.332790 0.000110 0.943001
vn 0.332995 0.000110 0.942929
vn 0.240192 0.000085 0.970725
vn 0.240061 0.000085 0.970758
vn 0.000000 -1.000000 0.000000
vn 0.000000 -1.000000 0.000000
vn 0.000000 -1.000000 0.000000
vn 0.000000 -1.000000 0.000000
vn 0.000000 -1.000000 0.000000
vn 0.000000 -1.000000 0.000000
vn -0.142412 -0.000019 -0.989808
vn -0.142325 -0.000019 -0.989820
vn -0.000926 1.000000 0.000170
vn 0.048879 0.944762 0.324092
vn 0.090241 0.796645 0.597673
vn 0.153892 0.000057 0.988088
vn 0.153981 0.000057 0.988074
vn 0.000000 -1.000000 0.000000
vn 0.000000 -1.000000 0.000000
vn 0.000000 -1.000000 0.000000
vn -0.430785 -0.000017 -0.902454
vn -0.430567 -0.000017 -0.902559
vn 0.000000 -1.000000 0.000000
vn 0.000000 -1.000000 0.000000
vn 0.000000 -1.000000 0.000000
vn 0.429846 0.000062 0.902902
vn 0.430073 0.000061 0.902794
vn 0.136575 0.947602 0.288786
vn 0.257456 0.801002 0.540473
vn -0.000914 1.000000 0.000420
vn -0.885253 0.000176 -0.465110
vn -0.885481 0.000176 -0.464675
vn -0.924666 0.000042 -0.380779
vn -0.924472 0.000043 -0.381249
vn -0.000354 1.000000 0.000815
vn 0.301225 0.945958 0.120108
vn 0.288537 0.945950 0.148068
vn -0.000457 1.000000 0.000786
vn 0.567058 0.792756 0.223568
vn 0.544639 0.791937 0.276050
vn 0.932894 -0.000014 0.360151
vn 0.933097 -0.000013 0.359625
vn 0.894483 -0.000038 0.447101
vn 0.894235 -0.000038 0.447597
vn 0.000000 -1.000000 0.000000
vn 0.000000 -1.000000 0.000000
vn 0.000000 -1.000000 0.000000
vn 0.000000 -1.000000 0.000000
vn 0.000000 -1.000000 0.000000
vn 0.000000 -1.000000 0.000000
vn -0.956722 -0.000017 -0.291004
vn -0.956554 -0.000017 -0.291556
vn 0.000000 -1.000000 0.000000
vn 0.000000 -1.000000 0.000000
vn 0.000000 -1.000000 0.000000
vn 0.961681 0.000019 0.274172
vn 0.961845 0.000019 0.273596
vn 0.310943 0.945942 0.092235
vn 0.582499 0.794617 0.171111
vn -0.000259 1.000000 0.000837
vn -0.980627 -0.000017 -0.195884
vn -0.980506 -0.000017 -0.196492
vn -0.000172 1.000000 0.000856
vn 0.317680 0.946076 0.063401
vn 0.593027 0.796590 0.117314
vn 0.982032 0.000029 0.188717
vn 0.982154 0.000029 0.188080
vn 0.000000 -1.000000 0.000000
vn 0.000000 -1.000000 0.000000
vn 0.000000 -1.000000 0.000000
vn -0.837057 0.000271 -0.547116
vn -0.837337 0.000270 -0.546687
vn 0.000000 -1.000000 0.000000
vn 0.000000 -1.000000 0.000000
vn 0.000000 -1.000000 0.000000
vn 0.844648 -0.000005 0.535323
vn 0.844380 -0.000004 0.535744
vn 0.514230 0.792327 0.328305
vn 0.271862 0.946138 0.175826
vn -0.000562 1.000000 0.000747
vn -0.531194 -0.000169 -0.847250
vn -0.531446 -0.000170 -0.847092
vn 0.000000 -1.000000 0.000000
vn 0.000000 -1.000000 0.000000
vn 0.000000 -1.000000 0.000000
vn 0.527827 0.000021 0.849352
vn 0.527562 0.000021 0.849517
vn 0.317538 0.799919 0.509214
vn 0.167866 0.947647 0.271638
vn -0.000878 1.000000 0.000494
s 1
g Outside_Bend
usemtl initialShadingGroup
f 1/13/1 2/16/2 5/15/3 4/14/4
f 2/16/2 3/11/5 6/12/6 5/15/3
s 2
f 4/4/7 5/3/8 78/110/9 73/104/10
f 5/3/8 6/6/11 77/109/12 78/110/9
s 3
f 74/106/13 75/107/14 2/2/15 1/17/16
f 75/107/14 76/108/17 3/5/18 2/2/15
s 4
f 3/5/19 76/108/20 77/109/21 6/6/22
s 5
f 73/104/23 74/105/24 1/1/25 4/4/26
s 6
f 7/21/27 8/22/28 96/131/29 91/125/30
f 8/22/28 9/25/31 95/130/32 96/131/29
s 7
f 13/27/33 14/28/34 17/29/35 16/30/36
f 14/28/34 15/31/37 18/32/38 17/29/35
s 8
f 92/127/39 93/128/40 11/35/41 10/36/42
f 93/128/40 94/129/43 12/38/44 11/35/41
s 9
f 12/38/45 94/129/46 95/130/47 9/25/48
s 10
f 91/125/49 92/126/50 10/40/51 7/21/52
s 5
f 10/19/53 85/118/54 86/120/55 7/18/56
s 3
f 10/9/57 11/8/58 90/124/59 85/119/60
f 11/8/58 12/10/61 89/123/62 90/124/59
s 4
f 88/122/63 89/123/64 12/10/65 9/7/66
s 2
f 87/121/67 88/122/68 9/7/69 8/20/70
f 86/120/71 87/121/67 8/20/70 7/18/72
s 10
f 16/39/73 37/62/74 38/64/75 13/24/76
s 8
f 16/33/77 17/34/78 42/68/79 37/63/80
f 17/34/78 18/37/81 41/67/82 42/68/79
s 9
f 40/66/83 41/67/84 18/37/85 15/26/86
s 6
f 39/65/87 40/66/88 15/26/89 14/23/90
f 38/64/91 39/65/87 14/23/90 13/24/92
s 10
f 43/69/93 44/70/94 26/49/95 25/48/96
s 6
f 25/48/97 30/54/98 48/75/99 43/69/100
f 30/54/98 29/53/101 47/74/102 48/75/99
s 9
f 29/53/103 28/52/104 46/73/105 47/74/106
s 8
f 45/72/107 46/73/108 28/52/109 27/51/110
f 44/71/111 45/72/107 27/51/110 26/50/112
s 10
f 38/64/75 37/62/74 31/55/113 32/57/114
s 6
f 32/57/115 33/58/116 39/65/87 38/64/91
f 33/58/116 34/59/117 40/66/88 39/65/87
s 9
f 34/59/118 35/60/119 41/67/84 40/66/83
s 8
f 42/68/79 41/67/82 35/60/120 36/61/121
f 37/63/80 42/68/79 36/61/121 31/56/122
s 10
f 32/57/114 31/55/113 44/70/94 43/69/93
s 8
f 31/56/122 36/61/121 45/72/107 44/71/111
f 36/61/121 35/60/120 46/73/108 45/72/107
s 9
f 47/74/106 46/73/105 35/60/119 34/59/118
s 6
f 48/75/99 47/74/102 34/59/117 33/58/116
f 43/69/100 48/75/99 33/58/116 32/57/115
s 10
f 25/48/96 26/49/95 97/132/123 98/134/124
s 8
f 26/50/112 27/51/110 102/138/125 97/133/126
f 27/51/110 28/52/109 101/137/127 102/138/125
s 9
f 100/136/128 101/137/129 28/52/104 29/53/103
s 6
f 99/135/130 100/136/131 29/53/101 30/54/98
f 98/134/132 99/135/130 30/54/98 25/48/97
s 5
f 79/111/133 80/112/134 20/42/135 19/41/136
s 2
f 19/41/137 24/47/138 84/117/139 79/111/140
f 24/47/138 23/46/141 83/116/142 84/117/139
s 4
f 23/46/143 22/45/144 82/115/145 83/116/146
s 3
f 81/114/147 82/115/148 22/45/149 21/44/150
f 80/113/151 81/114/147 21/44/150 20/43/152
s 5
f 19/41/136 20/42/135 67/97/153 68/99/154
s 3
f 20/43/152 21/44/150 72/103/155 67/98/156
f 21/44/150 22/45/149 71/102/157 72/103/155
s 4
f 70/101/158 71/102/159 22/45/144 23/46/143
s 2
f 69/100/160 70/101/161 23/46/141 24/47/138
f 68/99/162 69/100/160 24/47/138 19/41/137
s 5
f 68/99/154 67/97/153 62/91/163 61/90/164
s 2
f 61/90/165 66/96/166 69/100/160 68/99/162
f 66/96/166 65/95/167 70/101/161 69/100/160
s 4
f 65/95/168 64/94/169 71/102/159 70/101/158
s 3
f 72/103/155 71/102/157 64/94/170 63/93/171
f 67/98/156 72/103/155 63/93/171 62/92/172
s 5
f 61/90/164 62/91/163 74/105/24 73/104/23
s 3
f 62/92/172 63/93/171 75/107/14 74/106/13
f 63/93/171 64/94/170 76/108/17 75/107/14
s 4
f 77/109/21 76/108/20 64/94/169 65/95/168
s 2
f 78/110/9 77/109/12 65/95/167 66/96/166
f 73/104/10 78/110/9 66/96/166 61/90/165
s 5
f 56/85/173 55/83/174 80/112/134 79/111/133
s 3
f 55/84/175 60/89/176 81/114/147 80/113/151
f 60/89/176 59/88/177 82/115/148 81/114/147
s 4
f 83/116/146 82/115/145 59/88/178 58/87/179
s 2
f 84/117/139 83/116/142 58/87/180 57/86/181
f 79/111/140 84/117/139 57/86/181 56/85/182
s 5
f 86/120/55 85/118/54 55/83/174 56/85/173
s 2
f 56/85/182 57/86/181 87/121/67 86/120/71
f 57/86/181 58/87/180 88/122/68 87/121/67
s 4
f 58/87/179 59/88/178 89/123/64 88/122/63
s 3
f 90/124/59 89/123/62 59/88/177 60/89/176
f 85/119/60 90/124/59 60/89/176 55/84/175
s 10
f 49/76/183 50/77/184 92/126/50 91/125/49
s 8
f 50/78/185 51/79/186 93/128/40 92/127/39
f 51/79/186 52/80/187 94/129/43 93/128/40
s 9
f 95/130/47 94/129/46 52/80/188 53/81/189
s 6
f 96/131/29 95/130/32 53/81/190 54/82/191
f 91/125/30 96/131/29 54/82/191 49/76/192
s 10
f 98/134/124 97/132/123 50/77/184 49/76/183
s 6
f 49/76/192 54/82/191 99/135/130 98/134/132
f 54/82/191 53/81/190 100/136/131 99/135/130
s 9
f 53/81/189 52/80/188 101/137/129 100/136/128
s 8
f 102/138/125 101/137/127 52/80/187 51/79/186
f 97/133/126 102/138/125 51/79/186 50/78/185
