# This file uses centimeters as units for non-parametric coordinates.

mtllib Wall_HP.mtl
g default
v -1.033675 0.000000 0.000000
v -0.533675 0.000000 0.000000
v -0.033675 0.000000 0.000000
v -1.033675 0.000000 -3.000000
v -0.533675 0.000000 -3.000000
v -0.033675 0.000000 -3.000000
v -1.026354 0.987109 -0.009503
v -1.033675 0.969433 -0.009333
v -1.008678 0.994431 -0.009574
v -1.033675 0.975002 -3.000000
v -1.026354 0.992678 -3.000000
v -1.008678 1.000000 -3.000000
v -0.534642 0.991548 -0.009574
v -0.552318 0.994431 -0.009574
v -0.533675 0.976756 -0.009403
v -0.518798 0.983197 -0.009574
v -0.533675 0.982324 -3.000000
v -0.552340 1.000000 -3.000000
v -0.534664 0.997085 -3.000000
v -0.518860 0.988648 -3.000000
v -0.037833 0.614817 -0.009493
v -0.049434 0.628787 -0.009574
v -0.033675 0.597141 -0.009267
v -0.033675 0.597176 -3.000000
v -0.049322 0.628876 -3.000000
v -0.037800 0.614852 -3.000000
vt 0.534757 0.014201
vt 0.533461 0.486802
vt 0.612228 0.487018
vt 0.613524 0.014417
vt 0.021637 0.485399
vt 0.022932 0.012798
vt 0.175232 0.485820
vt 0.184403 0.013240
vt 0.254997 0.486038
vt 0.262170 0.013453
vt 0.353548 0.486309
vt 0.455990 0.013985
vt 0.454695 0.486586
vt 0.361071 0.013725
vt 0.176506 0.013219
vt 0.183108 0.485841
vt 0.256296 0.013437
vt 0.260862 0.486055
vt 0.354821 0.013707
vt 0.359770 0.486326
vt 0.702643 0.405824
vt 0.702271 0.272027
vt 0.768717 0.409090
vt 0.706083 0.409264
vt 0.799213 0.071585
vt 0.802066 0.201127
vt 0.798818 0.204521
vt 0.773313 0.407535
vt 0.771269 0.406643
vt 0.738187 0.205856
vt 0.735656 0.203562
vt 0.837597 0.358714
vt 0.770894 0.271836
vt 0.839517 0.271645
vt 0.839747 0.354341
vt 0.668113 0.154569
vt 0.666350 0.074510
vt 0.732781 0.073047
vt 0.733706 0.204468
vt 0.670284 0.158736
vt 0.702652 0.409274
vt 0.180466 0.013229
vt 0.179170 0.485830
vt 0.802139 0.204448
vt 0.771276 0.409083
vt 0.259233 0.013445
vt 0.735707 0.205911
vt 0.257937 0.486047
vt 0.839755 0.357075
vt 0.357932 0.013716
vt 0.356637 0.486317
vt 0.668171 0.157212
vn -0.015437 0.999879 0.001862
vn -0.015486 0.999878 0.001862
vn 0.006117 0.999980 0.001862
vn 0.006115 0.999980 0.001862
vn 0.601604 0.798794 0.000768
vn 0.601614 0.798787 0.000768
vn 0.610840 0.791754 0.000722
vn 0.610826 0.791765 0.000722
vn 0.000000 -1.000000 0.000000
vn 0.000000 -1.000000 0.000000
vn 0.000000 -1.000000 0.000000
vn 0.000000 -1.000000 0.000000
vn 0.000000 -1.000000 0.000000
vn 0.000000 -1.000000 0.000000
vn 1.000000 -0.000000 0.000000
vn 1.000000 -0.000000 0.000000
vn 0.999977 0.006725 0.000000
vn 0.999978 0.006610 0.000000
vn -1.000000 0.000000 0.000000
vn -1.000000 0.000000 0.000000
vn -0.999974 0.007283 0.000014
vn -0.999973 0.007401 0.000014
vn -0.923879 0.382684 0.000713
vn -0.923879 0.382684 0.000713
vn -0.382686 0.923877 0.001721
vn -0.382686 0.923877 0.001721
vn 0.319497 0.947586 0.001747
vn 0.319380 0.947625 0.001747
vn 0.896496 0.443051 0.000020
vn 0.895939 0.444177 0.000020
vn -0.000000 0.009627 0.999954
vn -0.000000 0.009627 0.999954
vn -0.000000 0.009627 0.999954
vn 0.002007 0.010636 0.999941
vn 0.001829 0.010547 0.999943
vn 0.000000 0.009627 0.999954
vn -0.000000 0.009627 0.999954
vn -0.000000 0.000000 -1.000000
vn -0.000000 0.000000 -1.000000
vn -0.000000 0.000000 -1.000000
vn -0.000000 0.000000 -1.000000
vn -0.000000 0.000000 -1.000000
vn -0.000000 0.000000 -1.000000
vn -0.000000 0.000000 -1.000000
vn 0.004484 0.011882 0.999919
vn 0.003351 0.011722 0.999926
vn 0.000000 0.000000 -1.000000
vn 0.000000 0.000000 -1.000000
vn 0.004484 0.011882 0.999919
vn 0.004484 0.011882 0.999919
vn 0.004484 0.011882 0.999919
vn 0.004484 0.011882 0.999919
vn 0.000000 0.000000 -1.000000
vn 0.000000 0.000000 -1.000000
vn 0.000000 0.000000 -1.000000
vn 0.000000 0.000000 -1.000000
s 1
g Wall_HP
usemtl initialShadingGroup
f 12/16/1 9/8/2 14/17/3 18/9/4
f 20/18/5 16/10/6 22/19/7 25/11/8
s 3
f 4/3/9 5/2/10 2/1/11 1/4/12
f 5/2/10 6/13/13 3/12/14 2/1/11
s 1
f 3/12/15 6/13/16 24/20/17 23/14/18
s 5
f 4/5/19 1/6/20 8/15/21 10/7/22
f 8/15/21 7/42/23 11/43/24 10/7/22
s 1
f 7/42/25 9/8/2 12/16/1 11/43/26
f 14/17/3 13/46/27 19/48/28 18/9/4
f 13/46/27 16/10/6 20/18/5 19/48/28
f 22/19/7 21/50/29 26/51/30 25/11/8
f 21/50/29 23/14/18 24/20/17 26/51/30
s 6
f 7/41/31 8/21/32 1/22/33 2/33/34 15/29/35 14/23/36 9/24/37
s 7
f 18/30/38 17/31/39 5/38/40 4/25/41 10/26/42 11/44/43 12/27/44
s 6
f 15/29/35 16/28/45 13/45/46
f 15/29/35 13/45/46 14/23/36
s 7
f 17/31/39 18/30/38 19/47/47
f 17/31/39 19/47/47 20/39/48
s 6
f 21/49/49 22/32/50 16/28/45 15/29/35 2/33/34 3/34/51 23/35/52
s 7
f 24/36/53 6/37/54 5/38/40 17/31/39 20/39/48 25/40/55 26/52/56
