# This file uses centimeters as units for non-parametric coordinates.

mtllib Wall.mtl
g default
v -1.033675 0.000000 0.000000
v -0.533675 0.000000 0.000000
v -0.033675 0.000000 0.000000
v -1.033675 0.994431 -0.009574
v -0.533675 0.994431 -0.009574
v -0.033675 0.616888 -0.009574
v -1.033675 1.000000 -3.000000
v -0.533675 1.000000 -3.000000
v -0.033675 0.616888 -3.000000
v -1.033675 0.000000 -3.000000
v -0.533675 0.000000 -3.000000
v -0.033675 0.000000 -3.000000
vt 0.022932 0.012798
vt 0.534757 0.014201
vt 0.259233 0.013445
vt 0.180466 0.013229
vt 0.455990 0.013985
vt 0.357932 0.013716
vt 0.735707 0.205911
vt 0.802139 0.204448
vt 0.356637 0.486317
vt 0.533461 0.486802
vt 0.612228 0.487018
vt 0.454695 0.486586
vt 0.839517 0.271645
vt 0.839755 0.357075
vt 0.702271 0.272027
vt 0.702652 0.409274
vt 0.771276 0.409083
vt 0.770894 0.271836
vt 0.613524 0.014417
vt 0.668171 0.157212
vt 0.666350 0.074510
vt 0.179170 0.485830
vt 0.799213 0.071585
vt 0.021637 0.485399
vt 0.732781 0.073047
vt 0.257937 0.486047
vn 0.000000 0.009627 0.999954
vn 0.002008 0.010636 0.999941
vn 0.001448 0.010355 0.999945
vn 0.000000 0.009627 0.999954
vn 0.004486 0.011882 0.999919
vn 0.004486 0.011882 0.999919
vn 0.000000 0.999998 0.001862
vn 0.355596 0.934639 0.001305
vn 0.355373 0.934724 0.001306
vn 0.000000 0.999998 0.001862
vn 0.605414 0.795911 0.000741
vn 0.605414 0.795911 0.000741
vn 0.000000 0.000000 -1.000000
vn 0.000000 0.000000 -1.000000
vn 0.000000 0.000000 -1.000000
vn 0.000000 0.000000 -1.000000
vn 0.000000 0.000000 -1.000000
vn 0.000000 0.000000 -1.000000
vn 0.000000 -1.000000 0.000000
vn 0.000000 -1.000000 0.000000
vn 0.000000 -1.000000 0.000000
vn 0.000000 -1.000000 0.000000
vn 0.000000 -1.000000 0.000000
vn 0.000000 -1.000000 0.000000
vn 1.000000 0.000000 0.000000
vn 1.000000 0.000000 0.000000
vn 1.000000 0.000000 0.000000
vn 1.000000 0.000000 0.000000
vn -1.000000 -0.000000 0.000000
vn -1.000000 -0.000000 0.000000
vn -1.000000 -0.000000 0.000000
vn -1.000000 -0.000000 0.000000
s 1
g Wall
usemtl initialShadingGroup
f 1/15/1 2/18/2 5/17/3 4/16/4
f 2/18/2 3/13/5 6/14/6 5/17/3
s 2
f 4/4/7 5/3/8 8/26/9 7/22/10
f 5/3/8 6/6/11 9/9/12 8/26/9
s 3
f 7/8/13 8/7/14 11/25/15 10/23/16
f 8/7/14 9/20/17 12/21/18 11/25/15
s 4
f 10/11/19 11/10/20 2/2/21 1/19/22
f 11/10/20 12/12/23 3/5/24 2/2/21
s off
f 3/5/25 12/12/26 9/9/27 6/6/28
f 10/24/29 1/1/30 4/4/31 7/22/32
