# This file uses centimeters as units for non-parametric coordinates.

mtllib Floor Bend.mtl
g default
v 0.000000 0.000000 0.000000
v 3.000000 0.000000 0.000000
v 3.000000 0.000000 -3.000000
v 2.868420 0.000000 -2.996686
v 2.679851 0.000000 -2.991958
v 2.498065 0.000000 -2.971293
v 2.371218 0.000000 -2.956834
v 2.197555 0.000000 -2.922168
v 2.076425 0.000000 -2.897962
v 1.912028 0.000000 -2.849113
v 1.797278 0.000000 -2.814895
v 1.642586 0.000000 -2.751214
v 1.534777 0.000000 -2.706780
v 1.390694 0.000000 -2.628309
v 1.290224 0.000000 -2.573463
v 1.157089 0.000000 -2.479928
v 1.064272 0.000000 -2.414552
v 0.942471 0.000000 -2.305978
v 0.857579 0.000000 -2.230093
v 0.747501 0.000000 -2.106755
v 0.670806 0.000000 -2.020556
v 0.572887 0.000000 -1.883028
v 0.504694 0.000000 -1.786919
v 0.419439 0.000000 -1.636096
v 0.360040 0.000000 -1.530646
v 0.288033 0.000000 -1.367744
v 0.238026 0.000000 -1.253993
v 0.179914 0.000000 -1.080533
v 0.139564 0.000000 -0.959363
v 0.096030 0.000000 -0.777134
v 0.065879 0.000000 -0.649864
v 0.037866 0.000000 -0.461129
v 0.018593 0.000000 -0.329366
v 0.008739 0.000000 -0.138263
v 0.002187 0.000000 -0.004903
v 0.000000 0.000000 -0.004903
vt 0.000000 0.000000
vt 1.000000 0.000000
vt 1.000000 1.000000
vt 0.956140 0.998895
vt 0.893283 0.997319
vt 0.832688 0.990431
vt 0.790406 0.985611
vt 0.732518 0.974056
vt 0.692142 0.965987
vt 0.637343 0.949704
vt 0.599093 0.938298
vt 0.547529 0.917071
vt 0.511592 0.902260
vt 0.463565 0.876103
vt 0.430075 0.857821
vt 0.385696 0.826643
vt 0.354757 0.804851
vt 0.314157 0.768659
vt 0.285860 0.743364
vt 0.249167 0.702252
vt 0.223602 0.673519
vt 0.190962 0.627676
vt 0.168231 0.595640
vt 0.139813 0.545365
vt 0.120013 0.510215
vt 0.096011 0.455915
vt 0.079342 0.417998
vt 0.059971 0.360178
vt 0.046521 0.319788
vt 0.032010 0.259045
vt 0.021960 0.216621
vt 0.012622 0.153710
vt 0.006198 0.109789
vt 0.002913 0.046088
vt 0.000729 0.001634
vt 0.000000 0.001634
vn 0.000000 1.000000 0.000000
vn 0.000000 1.000000 0.000000
vn 0.000000 1.000000 0.000000
vn 0.000000 1.000000 0.000000
vn 0.000000 1.000000 0.000000
vn 0.000000 1.000000 0.000000
vn 0.000000 1.000000 0.000000
vn 0.000000 1.000000 0.000000
vn 0.000000 1.000000 0.000000
vn 0.000000 1.000000 0.000000
vn 0.000000 1.000000 0.000000
vn 0.000000 1.000000 0.000000
vn 0.000000 1.000000 0.000000
vn 0.000000 1.000000 0.000000
vn 0.000000 1.000000 0.000000
vn 0.000000 1.000000 0.000000
vn 0.000000 1.000000 0.000000
vn 0.000000 1.000000 0.000000
vn 0.000000 1.000000 0.000000
vn 0.000000 1.000000 0.000000
vn 0.000000 1.000000 0.000000
vn 0.000000 1.000000 0.000000
vn 0.000000 1.000000 0.000000
vn 0.000000 1.000000 0.000000
vn 0.000000 1.000000 0.000000
vn 0.000000 1.000000 0.000000
vn 0.000000 1.000000 0.000000
vn 0.000000 1.000000 0.000000
vn 0.000000 1.000000 0.000000
vn 0.000000 1.000000 0.000000
vn 0.000000 1.000000 0.000000
vn 0.000000 1.000000 0.000000
vn 0.000000 1.000000 0.000000
vn 0.000000 1.000000 0.000000
vn 0.000000 1.000000 0.000000
vn 0.000000 1.000000 0.000000
s off
g Floor_Bend
usemtl initialShadingGroup
f 1/1/1 2/2/2 3/3/3 4/4/4 5/5/5 6/6/6 7/7/7 8/8/8 9/9/9 10/10/10 11/11/11 12/12/12 13/13/13 14/14/14 15/15/15 16/16/16 17/17/17 18/18/18 19/19/19 20/20/20 21/21/21 22/22/22 23/23/23 24/24/24 25/25/25 26/26/26 27/27/27 28/28/28 29/29/29 30/30/30 31/31/31 32/32/32 33/33/33 34/34/34 35/35/35 36/36/36
